<svg xmlns="http://www.w3.org/2000/svg" width="600" height="600" viewBox="0 0 600 600">
  <rect width="600" height="600" fill="#eef2f7"/>
  <circle cx="300" cy="240" r="130" fill="#ffffff" opacity="0.25"/>
  <g transform="translate(150,90) scale(12.5)" fill="#4A627A"><path d="M22 9h-4.79l-4.38-6.56a.997.997 0 0 0-1.66.01L6.79 9H2c-.55 0-1 .45-1 1c0 .09 0 .18.04.27l2.54 9.27c.23.84 1 1.46 1.92 1.46h13c.92 0 1.69-.62 1.93-1.46l2.54-9.27L23 10c0-.55-.45-1-1-1M12 4.8L14.8 9H9.2zM18.5 19h-13l-2.19-8H20.7zM12 13c-1.1 0-2 .9-2 2s.9 2 2 2s2-.9 2-2s-.9-2-2-2"/></g>
</svg>
